<?xml version="1.0" encoding="utf-8"?>
<!-- Generator: Adobe Illustrator 25.2.1, SVG Export Plug-In . SVG Version: 6.00 Build 0)  -->
<svg version="1.1" id="Layer_1" xmlns="http://www.w3.org/2000/svg" xmlns:xlink="http://www.w3.org/1999/xlink" x="0px" y="0px"
	 viewBox="0 0 643.2 528" style="enable-background:new 0 0 643.2 528;" xml:space="preserve">
<style type="text/css">
	.st0{fill:#A3E3F8;}
	.st1{fill:#FF47A0;}
	.st2{fill:#3F3D56;}
	.st3{fill:#FFB8B8;}
	.st4{fill:#FFFFFF;}
	.st5{fill:#2F2E41;}
	.st6{fill:#6C63FF;}
</style>
<path class="st0" d="M470.8,434.7c10.4,3.7,21.9,1.6,30.4-5.4c10.7-8.9,14-23.7,16.7-37.3l8-40.4l-16.8,11.6
	c-12.1,8.3-24.5,16.9-32.9,29s-12,28.6-5.3,41.6"/>
<path class="st0" d="M472.2,483.6c-1.7-12.4-3.5-25-2.3-37.5c1.1-11.1,4.5-22,11.4-31c3.7-4.7,8.1-8.8,13.2-12
	c1.3-0.8,2.5,1.3,1.2,2.1c-8.8,5.5-15.5,13.7-19.4,23.4c-4.2,10.7-4.9,22.4-4.2,33.8c0.4,6.9,1.4,13.7,2.3,20.6
	c0.2,0.6-0.2,1.3-0.8,1.5C473,484.6,472.4,484.2,472.2,483.6z"/>
<path class="st0" d="M488.6,461.6c4.5,6.8,12.1,10.7,20.2,10.4c10.2-0.5,18.8-7.6,26.4-14.4l22.7-20.1l-15-0.7
	c-10.8-0.5-21.9-1-32.2,2.3s-19.8,11.4-21.7,22"/>
<path class="st0" d="M467.4,490.7c8.2-14.5,17.7-30.6,34.7-35.8c4.7-1.4,9.7-1.9,14.6-1.5c1.6,0.1,1.2,2.5-0.4,2.4
	c-8.2-0.7-16.5,1.5-23.3,6.2c-6.6,4.5-11.7,10.7-16,17.3c-2.7,4-5,8.3-7.4,12.5C468.8,493,466.6,492.1,467.4,490.7z"/>
<path class="st0" d="M265.2,388.7c-20.5,7.2-43.2,3.2-60-10.6c-21-17.6-27.6-46.7-33-73.6c-5.3-26.5-10.6-53-15.9-79.6l33.2,22.9
	c23.9,16.4,48.3,33.4,64.8,57.2c16.5,23.8,23.7,56.3,10.5,82.1"/>
<path class="st0" d="M262.4,485c3.4-24.5,6.8-49.3,4.5-74c-2.1-22-8.8-43.4-22.4-61c-7.2-9.3-16.1-17.3-26-23.6
	c-2.6-1.6-5,2.5-2.4,4.1c17.3,10.9,30.6,27,38.2,46c8.3,21.1,9.6,44.2,8.2,66.6c-0.9,13.6-2.7,27.1-4.5,40.5
	c-0.3,1.3,0.4,2.5,1.7,2.9C260.7,487.1,262,486.3,262.4,485L262.4,485z"/>
<path class="st0" d="M230,441.7c-8.8,13.3-23.9,21.1-39.8,20.6c-20.2-1-37-15-52.1-28.4l-44.8-39.5l29.6-1.4c21.3-1,43.2-2,63.5,4.6
	s39,22.4,42.7,43.4"/>
<path class="st0" d="M271.8,499.1c-16.2-28.6-34.9-60.4-68.4-70.6c-9.3-2.8-19.1-3.8-28.8-3c-3.1,0.3-2.3,5,0.8,4.7
	c16.3-1.3,32.5,2.9,45.9,12.2c13,8.8,23,21.1,31.6,34.1c5.2,8,9.9,16.3,14.6,24.5C269,503.7,273.4,501.8,271.8,499.1L271.8,499.1z"
	/>
<path class="st1" d="M147.1,111.8L7.8,82.6L6,82.3c-2.7-0.6-5.4,1.2-5.9,3.9c-0.2,1.1-0.1,2.3,0.4,3.3l55.9,111.8
	c0.7,1.5,2.1,2.5,3.7,2.7c1.6,0.2,3.3-0.3,4.4-1.5l38.1-40.7c0.5-0.6,1.3-0.9,2.1-0.9c1.1,0,2.1,0.6,2.7,1.5l7.9,14.5
	c1,2,3.3,3,5.5,2.5l0,0c2.2-0.5,3.8-2.4,3.8-4.7l1.4-33.5c0-0.4,0.1-0.8,0.3-1.2c0.2-0.4,0.5-0.7,0.8-1l22-18.3
	c2.1-1.8,2.4-4.9,0.7-7C149.1,112.6,148.2,112,147.1,111.8L147.1,111.8z M147.9,119l-22,18.3c-0.3,0.2-0.5,0.5-0.8,0.8L7.6,85.6
	c-0.1,0-0.2-0.1-0.3-0.1c-1.1-0.3-2.2,0.4-2.4,1.5c-0.2,0.8,0.1,1.6,0.8,2.1l96.8,70.2c-0.5,0.3-0.9,0.6-1.3,1L63.1,201
	c-1.1,1.2-3,1.3-4.2,0.1c-0.3-0.2-0.5-0.5-0.6-0.8L2.3,88.5c-0.7-1.5-0.1-3.3,1.4-4c0.6-0.3,1.3-0.4,1.9-0.2l1.9,0.4l139.2,29.2
	c1.6,0.3,2.7,1.9,2.3,3.6C148.8,118,148.5,118.6,147.9,119L147.9,119z"/>
<path class="st2" d="M147.1,111.8L7.8,82.6L6,82.3c-2.7-0.6-5.4,1.2-5.9,3.9c-0.2,1.1-0.1,2.3,0.4,3.3l55.9,111.8
	c0.7,1.5,2.1,2.5,3.7,2.7c1.6,0.2,3.3-0.3,4.4-1.5l38.1-40.7c0.5-0.6,1.3-0.9,2.1-0.9c1.1,0,2.1,0.6,2.7,1.5l7.9,14.5
	c1,2,3.3,3,5.5,2.5l0,0c2.2-0.5,3.8-2.4,3.8-4.7l1.4-33.5c0-0.4,0.1-0.8,0.3-1.2c0.2-0.4,0.5-0.7,0.8-1l22-18.3
	c2.1-1.8,2.4-4.9,0.7-7C149.1,112.6,148.2,112,147.1,111.8L147.1,111.8z M147.9,119l-22,18.3c-0.3,0.2-0.5,0.5-0.8,0.8
	c-0.2,0.3-0.4,0.5-0.5,0.8c-0.2,0.3-0.3,0.6-0.4,1l0,0c-0.1,0.3-0.1,0.7-0.2,1l-1.4,33.5c0,1.4-1,2.5-2.3,2.8l0,0
	c-1.3,0.3-2.7-0.3-3.3-1.5l-7.9-14.5c-0.8-1.5-2.4-2.5-4.1-2.6l0,0c-0.1,0-0.2,0-0.3,0c-0.8,0-1.6,0.2-2.3,0.6
	c-0.5,0.3-0.9,0.6-1.3,1L63.1,201c-1.1,1.2-3,1.3-4.2,0.1c-0.3-0.2-0.5-0.5-0.6-0.8L2.3,88.5c-0.7-1.5-0.1-3.3,1.4-4
	c0.6-0.3,1.3-0.4,1.9-0.2l1.9,0.4l139.2,29.2c1.6,0.3,2.7,1.9,2.3,3.6C148.8,118,148.5,118.6,147.9,119L147.9,119z"/>
<path class="st1" d="M125.6,138.3l-0.8,1.8l-0.5-0.2l0,0L6.8,87.5l98.2,71.3l0,0l0.3,0.2l-1.2,1.6l-1.7-1.2L5.6,89.1
	c-0.9-0.6-1.1-1.9-0.5-2.8c0.5-0.7,1.3-1,2.1-0.8c0.1,0,0.2,0.1,0.3,0.1l117.5,52.5L125.6,138.3z"/>
<path class="st3" d="M427.8,278l5.1,49.7l0.1,1l1.5,14.7l12.4,121.3v0l2.4,23.5c-0.9,1.3-1.8,2.6-2.5,4c-4.4,8.8-4.1,19.2,0.8,27.7
	c6-1.5,12-3.3,17.9-5.2c12.2-4,24-8.9,35.5-14.6c-1.2-6.6-4.6-12.5-9.7-16.8l-12.5-149.6l-1.1-13.1l-3.5-42.6L427.8,278z"/>
<ellipse transform="matrix(0.7071 -0.7071 0.7071 0.7071 54.0667 323.0221)" class="st3" cx="417" cy="96.2" rx="65.7" ry="65.7"/>
<path class="st4" d="M294.4,367.6c0,0.1,0,0.3,0,0.4c0.4,5.3,4.3,9.6,9.4,10.8l98.1,21.4c0.9,0.2,1.7,0.3,2.6,0.3
	c5.4,0,10.2-3.6,11.6-8.8c0.2-0.8,0.4-1.6,0.7-2.4v0c3.3-11.2,9.2-26.5,17.7-45.8c1.9-4.3,4-8.9,6.1-13.7c0.4-0.9,0.8-1.8,1.2-2.7
	c4.5-9.8,9.5-20.3,15-31.7c2.7-5.6,4.7-11.4,6.1-17.4c3.6-15.9,2.2-32.5-4-47.6c-1.3-3.1-2.7-6.1-4.4-9
	c-13.1-23.1-36.8-38.2-63.3-40.3c-2.1-0.2-4.1-0.2-6.2-0.2c-20.7,0.1-40.6,8.2-55.5,22.5c-8.8,8.5-15.5,19-19.5,30.6
	c-0.3,0.7-0.5,1.5-0.7,2.2c-3.7,11.7-6.7,23.6-8.9,35.7c-1.3,7.2-2.4,14.2-3.3,21.1C294.1,317.8,293.2,342.7,294.4,367.6z"/>
<path class="st5" d="M251.2,493.2c59.6,33.9,130,43.4,196.5,26.7c6-1.5,12-3.3,17.9-5.2c-5.2-17-11.5-33.7-18.7-50v0
	c-12-26.9-23.1-43.4-28.4-50.7c-1.8-2.4-2.3-5.6-1.3-8.5l1.7-5c1.3-3.9,0.6-8.1-2-11.3v0c-0.1-0.1-0.2-0.3-0.4-0.4
	c-43.7-49.8-119.9-22.6-120.7-22.3l-0.4,0.1l-0.2,0.3c-0.3,0.4-0.5,0.7-0.8,1.1C273.8,396.9,260,441.4,251.2,493.2z"/>
<path class="st3" d="M161.4,172.6c0.3,1.4,0.5,2.9,0.6,4.4l115,66.3l28-16.1l29.8,39L288,299.6c-7.8,5.5-18.2,5.3-25.7-0.6
	l-118.6-93.5c-14.6,5.4-30.7-2-36.1-16.6c-5.4-14.6,2-30.7,16.6-36.1c14.6-5.4,30.7,2,36.1,16.6
	C160.8,170.4,161.1,171.5,161.4,172.6z"/>
<path class="st4" d="M278.7,242.3L278.7,242.3c0.4,1.5,1.1,2.9,2.1,4.2l19.6,25.4l9.4,12.1l8.2,10.6c4.1,5.3,11.6,6.2,16.9,2.2
	c0.5-0.4,0.9-0.8,1.3-1.2l29.8-30.9l12.3-12.8c14.6-11.4,17.2-32.4,5.8-47c-11.3-14.5-32.2-17.2-46.8-5.9l-7.7,4.3l-45.1,25.2
	C279.7,231.3,277.3,237,278.7,242.3z"/>
<path class="st6" d="M408.8,258.3l1.9,60l0,0.4c0.2,6.6,5.8,11.9,12.4,11.7c0.6,0,1.2-0.1,1.8-0.2l8.1-1.5l2.1-0.4h0l6.8-1.2l36-6.5
	l6.9-1.2c6.6-1.2,10.9-7.5,9.7-14c-0.1-0.6-0.2-1.1-0.4-1.7l-19.4-57.5c-3.4-18.2-20.9-30.1-39-26.8
	C417.5,222.8,405.5,240.2,408.8,258.3L408.8,258.3z"/>
<path class="st5" d="M406.5,81.1c-16.9,11.6-39.1,23.5-56.3,11.1c-11.3-8.1-14.9-23.1-10.3-36.2c8.3-23.6,31-34,52.7-42
	c28.2-10.4,59-18.6,88.1-11.2s54.9,35.6,49.6,65.2c-4.2,23.8-26.7,43.6-23.5,67.6c3.2,24.1,30.3,36.8,54.3,41.1s50.8,5.7,68,22.9
	c22,21.9,16.5,61.2-4.2,84.3s-51.8,33.7-82.1,40.8c-40,9.5-83.3,14.4-121.3-1.3s-67.6-58-56.6-97.6c4.7-16.7,15.6-30.9,26.2-44.7
	s21.3-28.2,25.4-45.1c3.4-14.1,0.9-30.4-8.5-41c-3.5-3.8-4.1-9.4-1.6-13.9L406.5,81.1z"/>
</svg>
